<svg width="24" height="25" viewBox="0 0 24 25" fill="none" xmlns="http://www.w3.org/2000/svg">
<g clip-path="url(#clip0_5528_80195)">
<path d="M20 9.39967V11.8487H17.7778L15.5556 14.2976V21.6446H6.66667V4.50171H15.5556L17.7778 2.05273H1.11111C0.555556 2.05273 0 2.54253 0 3.27722V22.8691C0 23.4813 0.444444 24.0936 1.11111 24.0936H21.1111C21.6667 24.0936 22.2222 23.6038 22.2222 22.8691V6.95069L20 9.39967ZM4.44444 21.6446H2.22222V19.1956H4.44444V21.6446ZM4.44444 16.7466H2.22222V14.2976H4.44444V16.7466ZM4.44444 11.8487H2.22222V9.39967H4.44444V11.8487ZM4.44444 6.95069H2.22222V4.50171H4.44444V6.95069ZM20 21.6446H17.7778V19.1956H20V21.6446ZM20 16.7466H17.7778V14.2976H20V16.7466Z" fill="#525256"/>
<path d="M15.1109 13.3181H11.8887V9.88952L20.5553 0.338498C20.8887 -0.0288484 21.3331 -0.0288484 21.6664 0.338498L23.7776 2.66503C24.1109 3.03238 24.1109 3.52217 23.7776 3.88952L15.1109 13.3181Z" fill="#787E82"/>
</g>
<defs>
<clipPath id="clip0_5528_80195">
<rect width="24" height="24" fill="white" transform="translate(0 0.0935059)"/>
</clipPath>
</defs>
</svg>
