<svg width="28" height="28" viewBox="0 0 28 28" fill="none" xmlns="http://www.w3.org/2000/svg">
<g clip-path="url(#clip0_4899_109487)">
<path d="M23.3333 10.8571V13.7142H20.7407L18.1481 16.5714V25.1428H7.77778V5.14279H18.1481L20.7407 2.28564H1.2963C0.648148 2.28564 0 2.85707 0 3.71422V26.5714C0 27.2856 0.518519 27.9999 1.2963 27.9999H24.6296C25.2778 27.9999 25.9259 27.4285 25.9259 26.5714V7.99993L23.3333 10.8571ZM5.18519 25.1428H2.59259V22.2856H5.18519V25.1428ZM5.18519 19.4285H2.59259V16.5714H5.18519V19.4285ZM5.18519 13.7142H2.59259V10.8571H5.18519V13.7142ZM5.18519 7.99993H2.59259V5.14279H5.18519V7.99993ZM23.3333 25.1428H20.7407V22.2856H23.3333V25.1428ZM23.3333 19.4285H20.7407V16.5714H23.3333V19.4285Z" fill="#008662"/>
<path d="M17.6304 15.4286H13.8711V11.4286L23.9822 0.285784C24.3711 -0.142787 24.8896 -0.142787 25.2785 0.285784L27.7415 3.00007C28.1304 3.42864 28.1304 4.00007 27.7415 4.42864L17.6304 15.4286Z" fill="#008662"/>
</g>
<defs>
<clipPath id="clip0_4899_109487">
<rect width="28" height="28" fill="white"/>
</clipPath>
</defs>
</svg>
