<svg width="30" height="30" viewBox="0 0 30 30" fill="none" xmlns="http://www.w3.org/2000/svg">
<path d="M6.66426 26.4563C4.85663 25.1428 3.38583 23.4199 2.37231 21.4285C1.35879 19.4372 0.831371 17.2341 0.833257 14.9997C0.833257 7.17542 7.17567 0.833008 14.9999 0.833008C22.8242 0.833008 29.1666 7.17542 29.1666 14.9997C29.1685 17.2341 28.6411 19.4372 27.6275 21.4285C26.614 23.4199 25.1432 25.1428 23.3356 26.4563L21.8977 23.9927C23.7767 22.5513 25.1571 20.5576 25.8448 18.2914C26.5326 16.0253 26.4931 13.6007 25.7321 11.3581C24.9711 9.11551 23.5267 7.16767 21.6017 5.78817C19.6768 4.40867 17.3681 3.66682 14.9999 3.66682C12.6317 3.66682 10.323 4.40867 8.39811 5.78817C6.4732 7.16767 5.02877 9.11551 4.26774 11.3581C3.5067 13.6007 3.46728 16.0253 4.15502 18.2914C4.84277 20.5576 6.22311 22.5513 8.10217 23.9927L6.66426 26.4563ZM9.54576 21.5192C8.20704 20.3992 7.24557 18.8942 6.79197 17.2088C6.33837 15.5233 6.41464 13.7391 7.01041 12.0985C7.60618 10.4579 8.69257 9.04046 10.122 8.0388C11.5514 7.03715 13.2545 6.49981 14.9999 6.49981C16.7454 6.49981 18.4485 7.03715 19.8779 8.0388C21.3073 9.04046 22.3937 10.4579 22.9894 12.0985C23.5852 13.7391 23.6615 15.5233 23.2079 17.2088C22.7543 18.8942 21.7928 20.3992 20.4541 21.5192L18.9949 19.0173C19.7908 18.2262 20.3338 17.2166 20.5552 16.1164C20.7766 15.0163 20.6664 13.8752 20.2385 12.8378C19.8106 11.8003 19.0843 10.9133 18.1517 10.2892C17.2191 9.66503 16.1221 9.33183 14.9999 9.33183C13.8777 9.33183 12.7808 9.66503 11.8482 10.2892C10.9156 10.9133 10.1893 11.8003 9.76139 12.8378C9.33348 13.8752 9.22324 15.0163 9.44462 16.1164C9.66601 17.2166 10.2091 18.2262 11.0049 19.0173L9.54576 21.5192ZM13.5833 16.4163H16.4166V29.1663H13.5833V16.4163Z" fill="#008662"/>
</svg>
