<svg width="24" height="25" viewBox="0 0 24 25" fill="none" xmlns="http://www.w3.org/2000/svg">
<path d="M5.08437 16.312C3.14375 14.9057 2 12.6463 2 10.2463C2 6.10259 5.35625 2.74634 9.5 2.74634C13.6438 2.74634 17 6.10259 17 10.2463C17 12.6463 15.8562 14.9057 13.9156 16.312L13.1562 15.0088C15.7812 12.9932 16.2781 9.22446 14.2625 6.59946C12.2469 3.97446 8.47812 3.46821 5.84375 5.48384C3.20937 7.49946 2.72187 11.2682 4.7375 13.9026C5.05625 14.3151 5.43125 14.6901 5.84375 15.0088L5.08437 16.312ZM6.6125 13.6963C4.70938 12.1026 4.45625 9.26196 6.05 7.35884C7.64375 5.45571 10.4844 5.20259 12.3875 6.79634C14.2906 8.39009 14.5438 11.2307 12.95 13.1338C12.7813 13.3401 12.5937 13.5276 12.3875 13.6963L11.6188 12.3745C12.7906 11.2026 12.8 9.30884 11.6281 8.12759C10.4563 6.94634 8.5625 6.94634 7.38125 8.11821C6.2 9.29009 6.2 11.1838 7.37188 12.3651L7.38125 12.3745L6.6125 13.6963ZM8.75 10.9963H10.25V17.7463H8.75V10.9963Z" fill="#787E82"/>
<path d="M13 18.9963V22.7463H14.6364V18.1278C14.125 18.465 13.5727 18.7613 13 18.9963ZM18.4 12.8655C18.0114 14.3165 17.2648 15.6346 16.2727 16.7075C16.2216 16.7688 16.1807 16.8301 16.1193 16.8914L16.958 18.3322C17.183 18.1482 17.3875 17.9439 17.5716 17.7191C18.758 16.3192 18.9932 14.4698 18.4 12.8655ZM18.3182 7.74634C18.5636 8.53312 18.6966 9.371 18.717 10.2395C18.8193 10.3519 18.9216 10.4643 19.0136 10.5869C21.2125 13.448 20.6705 17.5556 17.8068 19.7525L18.6352 21.1728C20.7523 19.6503 22 17.1878 22 14.572C22 11.7211 20.5375 9.21773 18.3182 7.74634Z" fill="#525256"/>
</svg>
