<svg width="20" height="21" viewBox="0 0 20 21" fill="none" xmlns="http://www.w3.org/2000/svg">
<path d="M4.116 18.1316C2.84003 17.2044 1.80182 15.9883 1.08639 14.5826C0.370965 13.177 -0.00132749 11.6218 3.55658e-06 10.0446C3.55658e-06 4.52159 4.477 0.0445862 10 0.0445862C15.523 0.0445862 20 4.52159 20 10.0446C20.0013 11.6218 19.629 13.177 18.9136 14.5826C18.1982 15.9883 17.16 17.2044 15.884 18.1316L14.869 16.3926C16.1954 15.3752 17.1698 13.9678 17.6552 12.3682C18.1407 10.7686 18.1129 9.05705 17.5757 7.47406C17.0385 5.89106 16.0189 4.51611 14.6601 3.54235C13.3013 2.56858 11.6717 2.04492 10 2.04492C8.32834 2.04492 6.69867 2.56858 5.3399 3.54235C3.98114 4.51611 2.96154 5.89106 2.42434 7.47406C1.88714 9.05705 1.85932 10.7686 2.34478 12.3682C2.83025 13.9678 3.80461 15.3752 5.131 16.3926L4.116 18.1316ZM6.15 14.6466C5.20503 13.856 4.52634 12.7937 4.20616 11.604C3.88597 10.4142 3.9398 9.15476 4.36035 7.99669C4.78089 6.83862 5.54776 5.83808 6.55675 5.13103C7.56574 4.42398 8.76794 4.04468 10 4.04468C11.2321 4.04468 12.4343 4.42398 13.4433 5.13103C14.4523 5.83808 15.2191 6.83862 15.6397 7.99669C16.0602 9.15476 16.114 10.4142 15.7939 11.604C15.4737 12.7937 14.795 13.856 13.85 14.6466L12.82 12.8806C13.3818 12.3221 13.7651 11.6094 13.9214 10.8329C14.0777 10.0563 13.9998 9.25081 13.6978 8.51852C13.3957 7.78623 12.8831 7.16011 12.2248 6.71953C11.5664 6.27895 10.7921 6.04376 10 6.04376C9.20786 6.04376 8.43356 6.27895 7.77525 6.71953C7.11694 7.16011 6.60426 7.78623 6.30221 8.51852C6.00016 9.25081 5.92234 10.0563 6.07861 10.8329C6.23488 11.6094 6.61821 12.3221 7.18 12.8806L6.15 14.6466ZM9 11.0446H11V20.0446H9V11.0446Z" fill="#787E82"/>
</svg>
