<svg width="18" height="19" viewBox="0 0 18 19" fill="none" xmlns="http://www.w3.org/2000/svg">
<g clip-path="url(#clip0_741_10803)">
<path d="M14.58 0.209999C14.17 -0.120001 13.56 -0.0600005 13.23 0.349999L7.44999 7.49C7.43999 7.51 7.42999 7.52 7.41999 7.53C6.81999 7.41 6.14999 7.43 5.42999 7.61C3.56999 8.07 1.89999 9.39 1.07999 11.06C-0.320014 13.89 0.0299855 18.23 0.0399855 18.41L0.0999855 19H11.84H13.47L12.28 17.89C12.26 17.88 10.7 16.41 10.08 14.2C9.83999 13.36 9.83999 12.5 9.82999 11.66C9.80999 10.53 9.79998 9.36 9.10999 8.5L14.73 1.56C15.06 1.15 15 0.549999 14.58 0.209999ZM5.73999 8.86C6.60999 8.65 7.38999 8.72 7.86999 9.07C8.27999 9.37 8.43999 9.81 8.49999 10.44C7.89999 10.64 7.34999 10.64 6.81999 10.44C6.05999 10.15 5.52999 9.49 5.21999 9.02C5.38999 8.95 5.55999 8.9 5.73999 8.86ZM10.44 17.72H8.23999C7.31999 16.67 6.94999 14.56 6.87999 13.79C6.84999 13.44 6.53999 13.18 6.18999 13.21C5.83999 13.24 5.57999 13.55 5.60999 13.9C5.61999 14.01 5.80999 16.11 6.69999 17.72H4.79999C4.11999 16.55 4.04999 14.59 4.08999 13.88C4.10999 13.53 3.83999 13.23 3.48999 13.21C3.13999 13.19 2.83999 13.46 2.81999 13.81C2.80999 13.92 2.70999 16.02 3.39999 17.72H1.28999C1.24999 16.48 1.26999 13.57 2.22999 11.63C2.61999 10.83 3.28999 10.12 4.07999 9.6C4.46999 10.24 5.20999 11.19 6.34999 11.63C6.76999 11.79 7.19999 11.87 7.63999 11.87C7.93999 11.87 8.23999 11.83 8.54999 11.76C8.55999 12.61 8.56999 13.57 8.84999 14.55C9.21999 15.89 9.87998 16.98 10.44 17.72Z" fill="black"/>
<path d="M15.6301 14.51V16.88L14.0501 17.67V14.51L11.6801 10.96V10.17H18.0001V10.96L15.6301 14.51ZM12.6301 10.96L14.8401 14.27L17.0501 10.96H12.6301Z" fill="black"/>
</g>
<defs>
<clipPath id="clip0_741_10803">
<rect width="18" height="19" fill="white"/>
</clipPath>
</defs>
</svg>
