<svg width="16" height="15" viewBox="0 0 16 15" fill="none" xmlns="http://www.w3.org/2000/svg">
<path d="M12.9001 0.16683C12.5584 -0.0936961 12.0501 -0.0463276 11.7751 0.277357L6.95842 5.9142C6.95009 5.92999 6.94176 5.93788 6.93342 5.94578C6.43342 5.85104 5.87509 5.86683 5.27509 6.00894C3.72509 6.37209 2.33342 7.4142 1.65009 8.73262C0.483423 10.9668 0.77509 14.3931 0.783423 14.5353L0.833423 15.001H10.6168H11.9751L10.9834 14.1247C10.9668 14.1168 9.66676 12.9563 9.15009 11.2116C8.95009 10.5484 8.95009 9.86946 8.94176 9.2063C8.92509 8.3142 8.91676 7.39051 8.34176 6.71157L13.0251 1.23262C13.3001 0.908935 13.2501 0.435251 12.9001 0.16683ZM5.53342 6.99578C6.25842 6.82999 6.90842 6.88525 7.30842 7.16157C7.65009 7.39841 7.78342 7.74578 7.83342 8.24314C7.33342 8.40104 6.87509 8.40104 6.43342 8.24314C5.80009 8.0142 5.35842 7.49315 5.10009 7.12209C5.24176 7.06683 5.38342 7.02736 5.53342 6.99578ZM9.45009 13.9905H7.61676C6.85009 13.1616 6.54176 11.4958 6.48342 10.8879C6.45842 10.6116 6.20009 10.4063 5.90842 10.43C5.61676 10.4537 5.40009 10.6984 5.42509 10.9747C5.43342 11.0616 5.59176 12.7195 6.33342 13.9905H4.75009C4.18342 13.0668 4.12509 11.5195 4.15842 10.9589C4.17509 10.6826 3.95009 10.4458 3.65842 10.43C3.36676 10.4142 3.11676 10.6274 3.10009 10.9037C3.09176 10.9905 3.00842 12.6484 3.58342 13.9905H1.82509C1.79176 13.0116 1.80842 10.7142 2.60842 9.18262C2.93342 8.55104 3.49176 7.99051 4.15009 7.57999C4.47509 8.08525 5.09176 8.83525 6.04176 9.18262C6.39176 9.30894 6.75009 9.37209 7.11676 9.37209C7.36676 9.37209 7.61676 9.34051 7.87509 9.28525C7.88342 9.9563 7.89176 10.7142 8.12509 11.4879C8.43342 12.5458 8.98342 13.4063 9.45009 13.9905Z" fill="white"/>
<path d="M13.7751 11.4561V13.3272L12.4584 13.9508V11.4561L10.4834 8.65347V8.02979H15.7501V8.65347L13.7751 11.4561ZM11.2751 8.65347L13.1167 11.2666L14.9584 8.65347H11.2751Z" fill="white" fill-opacity="0.9"/>
</svg>
