<svg width="18" height="16" viewBox="0 0 18 16" fill="none" xmlns="http://www.w3.org/2000/svg">
<path d="M8.80604 8.4745L12.1386 11.8062L11.0272 12.9176L9.59146 11.4819V15.8684H8.02062V11.4803L6.58487 12.9176L5.4735 11.8062L8.80604 8.4745ZM8.80604 0.160034C10.1546 0.160098 11.4561 0.655724 12.4631 1.55268C13.4701 2.44963 14.1124 3.68537 14.2679 5.02493C15.2451 5.29144 16.0977 5.8929 16.6765 6.72421C17.2553 7.55552 17.5235 8.56379 17.4344 9.57282C17.3452 10.5819 16.9043 11.5275 16.1886 12.2444C15.473 12.9613 14.5282 13.4039 13.5193 13.4949V11.9131C13.8808 11.8615 14.2283 11.7384 14.5416 11.551C14.855 11.3636 15.1278 11.1156 15.3443 10.8217C15.5608 10.5277 15.7165 10.1935 15.8025 9.83865C15.8884 9.48381 15.9028 9.1154 15.8448 8.75495C15.7867 8.39449 15.6575 8.0492 15.4646 7.73922C15.2717 7.42925 15.019 7.16082 14.7212 6.94958C14.4234 6.73834 14.0865 6.58854 13.7302 6.50891C13.3739 6.42929 13.0053 6.42143 12.646 6.48581C12.769 5.91315 12.7623 5.32023 12.6265 4.75047C12.4907 4.18071 12.2291 3.64855 11.861 3.19296C11.4929 2.73737 11.0275 2.3699 10.499 2.11746C9.97046 1.86501 9.39215 1.73399 8.80643 1.73399C8.22071 1.73399 7.6424 1.86501 7.11387 2.11746C6.58534 2.3699 6.11998 2.73737 5.75186 3.19296C5.38374 3.64855 5.12219 4.18071 4.98637 4.75047C4.85055 5.32023 4.8439 5.91315 4.96691 6.48581C4.25033 6.35125 3.50965 6.50685 2.9078 6.91839C2.30596 7.32993 1.89225 7.9637 1.75768 8.68028C1.62311 9.39685 1.77872 10.1375 2.19026 10.7394C2.6018 11.3412 3.23557 11.7549 3.95214 11.8895L4.09352 11.9131V13.4949C3.08461 13.4041 2.13971 12.9615 1.42398 12.2447C0.70825 11.5278 0.267209 10.5822 0.177944 9.57316C0.0886788 8.56411 0.356867 7.55578 0.935635 6.7244C1.5144 5.89303 2.36694 5.29149 3.34423 5.02493C3.49951 3.6853 4.14175 2.44947 5.14879 1.55248C6.15584 0.655493 7.45744 0.159927 8.80604 0.160034Z" fill="#FAFAFA"/>
</svg>
