<svg width="24" height="28" viewBox="0 0 24 28" fill="none" xmlns="http://www.w3.org/2000/svg">
<path d="M13.3333 14H17.3333L12 19.3333L6.66667 14H10.6667V8.66663H13.3333V14ZM16 3.33329H2.66667V24.6666H21.3333V8.66663H16V3.33329ZM0 1.98929C0 1.25863 0.596 0.666626 1.332 0.666626H17.3333L24 7.33329V25.9906C24.0012 26.1657 23.968 26.3393 23.9021 26.5016C23.8362 26.6638 23.739 26.8115 23.6161 26.9362C23.4931 27.0609 23.3468 27.1601 23.1855 27.2282C23.0242 27.2964 22.8511 27.3321 22.676 27.3333H1.324C0.973837 27.3309 0.63869 27.1908 0.390957 26.9433C0.143224 26.6958 0.00279287 26.3608 0 26.0106V1.98929Z" fill="#008662"/>
</svg>
