<svg width="17" height="17" viewBox="0 0 17 17" fill="none" xmlns="http://www.w3.org/2000/svg">
<path d="M13.0785 14.2727C11.7594 15.1094 10.229 15.5525 8.66698 15.55C4.62298 15.55 1.25848 12.64 0.552734 8.79998C0.875257 7.05301 1.75396 5.45715 3.05773 4.25048L0.710984 1.90598L1.77223 0.844727L16.6215 15.6947L15.5602 16.7552L13.0777 14.2727H13.0785ZM4.11823 5.31248C3.09899 6.23917 2.38897 7.45656 2.08423 8.79998C2.31845 9.82482 2.78868 10.7808 3.45749 11.5919C4.12629 12.403 4.9752 13.0468 5.93665 13.472C6.89809 13.8971 7.94552 14.092 8.99555 14.0411C10.0456 13.9901 11.0692 13.6948 11.985 13.1785L10.464 11.6575C9.8165 12.0653 9.04963 12.2411 8.28916 12.1558C7.52869 12.0706 6.81976 11.7294 6.27866 11.1883C5.73756 10.6472 5.3964 9.93827 5.31116 9.1778C5.22591 8.41733 5.40162 7.65046 5.80948 7.00298L4.11823 5.31248ZM9.35248 10.546L6.92098 8.11448C6.78753 8.45418 6.75612 8.82544 6.83061 9.18273C6.9051 9.54003 7.08225 9.86781 7.34032 10.1259C7.5984 10.384 7.92618 10.5611 8.28348 10.6356C8.64077 10.7101 9.01203 10.6787 9.35173 10.5452L9.35248 10.546ZM15.2722 12.244L14.199 11.1715C14.7003 10.457 15.0573 9.65136 15.2497 8.79998C15.0459 7.90727 14.6627 7.06534 14.1233 6.32535C13.584 5.58536 12.8998 4.96277 12.1124 4.49543C11.325 4.02809 10.4507 3.72575 9.54278 3.6068C8.63486 3.48785 7.71224 3.55476 6.83098 3.80348L5.64748 2.61998C6.58273 2.25248 7.60198 2.04998 8.66698 2.04998C12.711 2.04998 16.0755 4.95998 16.7812 8.79998C16.5514 10.0493 16.0349 11.2282 15.2722 12.244ZM8.45923 5.43098C8.93662 5.40147 9.41482 5.47378 9.86214 5.64309C10.3095 5.8124 10.7157 6.07486 11.0539 6.41306C11.3921 6.75127 11.6546 7.1575 11.8239 7.60482C11.9932 8.05214 12.0655 8.53034 12.036 9.00773L8.45848 5.43098H8.45923Z" fill="#FAFAFA"/>
</svg>
