<svg width="17" height="14" viewBox="0 0 17 14" fill="none" xmlns="http://www.w3.org/2000/svg">
<path d="M8.66698 0.25C12.711 0.25 16.0755 3.16 16.7812 7C16.0762 10.84 12.711 13.75 8.66698 13.75C4.62298 13.75 1.25848 10.84 0.552734 7C1.25773 3.16 4.62298 0.25 8.66698 0.25ZM8.66698 12.25C10.1966 12.2497 11.6808 11.7301 12.8766 10.7764C14.0725 9.82264 14.9092 8.49121 15.2497 7C14.9079 5.50998 14.0707 4.18 12.875 3.22752C11.6792 2.27504 10.1957 1.7564 8.66698 1.7564C7.13826 1.7564 5.65475 2.27504 4.45902 3.22752C3.26328 4.18 2.42606 5.50998 2.08423 7C2.42481 8.49121 3.26149 9.82264 4.45734 10.7764C5.6532 11.7301 7.13738 12.2497 8.66698 12.25ZM8.66698 10.375C7.77188 10.375 6.91343 10.0194 6.2805 9.38649C5.64756 8.75355 5.29198 7.89511 5.29198 7C5.29198 6.10489 5.64756 5.24645 6.2805 4.61351C6.91343 3.98058 7.77188 3.625 8.66698 3.625C9.56209 3.625 10.4205 3.98058 11.0535 4.61351C11.6864 5.24645 12.042 6.10489 12.042 7C12.042 7.89511 11.6864 8.75355 11.0535 9.38649C10.4205 10.0194 9.56209 10.375 8.66698 10.375ZM8.66698 8.875C9.16427 8.875 9.64118 8.67746 9.99281 8.32582C10.3444 7.97419 10.542 7.49728 10.542 7C10.542 6.50272 10.3444 6.02581 9.99281 5.67417C9.64118 5.32254 9.16427 5.125 8.66698 5.125C8.1697 5.125 7.69279 5.32254 7.34116 5.67417C6.98953 6.02581 6.79198 6.50272 6.79198 7C6.79198 7.49728 6.98953 7.97419 7.34116 8.32582C7.69279 8.67746 8.1697 8.875 8.66698 8.875Z" fill="#008662"/>
</svg>
