<svg width="20" height="21" viewBox="0 0 20 21" fill="none" xmlns="http://www.w3.org/2000/svg">
<path d="M10 20.0446C4.477 20.0446 0 15.5676 0 10.0446C0 4.52159 4.477 0.0445862 10 0.0445862C15.523 0.0445862 20 4.52159 20 10.0446C20 15.5676 15.523 20.0446 10 20.0446ZM10 18.0446C12.1217 18.0446 14.1566 17.2017 15.6569 15.7014C17.1571 14.2011 18 12.1663 18 10.0446C18 7.92285 17.1571 5.88802 15.6569 4.38773C14.1566 2.88744 12.1217 2.04459 10 2.04459C7.87827 2.04459 5.84344 2.88744 4.34315 4.38773C2.84285 5.88802 2 7.92285 2 10.0446C2 12.1663 2.84285 14.2011 4.34315 15.7014C5.84344 17.2017 7.87827 18.0446 10 18.0446ZM9 13.0446H11V15.0446H9V13.0446ZM11 11.3996V12.0446H9V10.5446C9 10.2794 9.10536 10.025 9.29289 9.83748C9.48043 9.64994 9.73478 9.54459 10 9.54459C10.2841 9.54457 10.5623 9.46388 10.8023 9.31192C11.0423 9.15995 11.2343 8.94295 11.3558 8.68617C11.4773 8.42939 11.5234 8.14338 11.4887 7.86143C11.454 7.57948 11.34 7.31317 11.1598 7.0935C10.9797 6.87382 10.7409 6.70982 10.4712 6.62056C10.2015 6.5313 9.91204 6.52045 9.63643 6.58929C9.36081 6.65813 9.11042 6.80382 8.91437 7.0094C8.71832 7.21499 8.58468 7.47202 8.529 7.75059L6.567 7.35759C6.68863 6.74967 6.96951 6.18496 7.38092 5.72117C7.79233 5.25739 8.31952 4.91117 8.90859 4.71791C9.49766 4.52464 10.1275 4.49127 10.7337 4.6212C11.3399 4.75113 11.9007 5.0397 12.3588 5.45741C12.8169 5.87512 13.1559 6.40699 13.3411 6.99865C13.5263 7.59031 13.5511 8.22053 13.4129 8.82489C13.2747 9.42926 12.9785 9.98608 12.5545 10.4384C12.1306 10.8908 11.5941 11.2225 11 11.3996Z" fill="#787E82"/>
</svg>
