<svg width="13" height="14" viewBox="0 0 13 14" fill="none" xmlns="http://www.w3.org/2000/svg">
<path d="M10.2694 9.88563L12.9462 12.5619L12.0619 13.4462L9.38563 10.7694C8.38984 11.5676 7.15125 12.0018 5.875 12C2.77 12 0.25 9.48 0.25 6.375C0.25 3.27 2.77 0.75 5.875 0.75C8.98 0.75 11.5 3.27 11.5 6.375C11.5018 7.65125 11.0676 8.88984 10.2694 9.88563ZM9.01562 9.42188C9.80882 8.60618 10.2518 7.51277 10.25 6.375C10.25 3.9575 8.29187 2 5.875 2C3.4575 2 1.5 3.9575 1.5 6.375C1.5 8.79187 3.4575 10.75 5.875 10.75C7.01277 10.7518 8.10618 10.3088 8.92188 9.51562L9.01562 9.42188Z" fill="#B1B1B1"/>
</svg>
