<svg width="406" height="70" viewBox="0 0 406 70" fill="none" xmlns="http://www.w3.org/2000/svg">
<g clip-path="url(#clip0_3190_59643)">
<path d="M38.91 35.8801C38.91 45.8401 30.18 53.9401 19.45 53.9401C8.72 53.9401 0 45.8401 0 35.8801C0 25.9201 8.73 17.8201 19.46 17.8201C30.19 17.8201 38.91 25.9301 38.91 35.8801ZM34.5 35.8801C34.5 28.1401 27.75 21.8401 19.46 21.8401C11.16 21.8401 4.42 28.1401 4.42 35.8801C4.42 43.6201 11.17 49.9201 19.46 49.9201C27.75 49.9301 34.5 43.6301 34.5 35.8801Z" fill="#12696A"/>
<path d="M100.08 28.43C100.08 29.9 99.76 31.28 99.12 32.53C98.48 33.79 97.55 34.88 96.35 35.78C95.19 36.65 93.79 37.33 92.19 37.8C90.64 38.25 88.89 38.48 87 38.48H77.61V53.39H73.2V18.39H87C88.9 18.39 90.64 18.62 92.19 19.07C93.79 19.53 95.19 20.21 96.34 21.07C97.54 21.97 98.48 23.06 99.12 24.32C99.77 25.55 100.09 26.94 100.08 28.43ZM95.68 28.43C95.68 27.52 95.5 26.72 95.13 25.99C94.77 25.27 94.25 24.68 93.56 24.16C92.83 23.62 91.92 23.19 90.86 22.88C89.75 22.56 88.45 22.39 87.01 22.39H77.62V34.46H87.01C88.45 34.46 89.74 34.29 90.86 33.97C91.92 33.66 92.83 33.23 93.55 32.69C94.24 32.17 94.76 31.56 95.12 30.84C95.5 30.11 95.68 29.32 95.68 28.43Z" fill="#12696A"/>
<path d="M248.16 53.3801H243.73L241.53 33.0001C241.13 29.2901 241.37 25.4801 241.37 25.4801C241.37 25.4801 240.01 29.3101 238.4 32.6201L229.11 51.7001L219.82 32.6201C218.21 29.3201 216.85 25.4801 216.85 25.4801C216.85 25.4801 217.09 29.2901 216.69 33.0101L214.49 53.3801H210.06L213.83 18.3801H217.71L229.11 41.7801L240.51 18.3801H244.4L248.16 53.3801Z" fill="#12696A"/>
<path d="M282.65 53.3801V18.3801H287.06V53.3801H282.65Z" fill="#12696A"/>
<path d="M348.11 44.0201C348.19 46.6001 347.17 48.9101 345.16 50.6901C342.81 52.7801 339.32 53.9501 335.48 53.9501C335.2 53.9501 334.92 53.9401 334.64 53.9301C327.98 53.6401 322.63 49.8601 320.99 44.3001L325.26 43.2601C326.63 47.9201 331.11 49.7601 334.85 49.9201C337.75 50.0501 340.45 49.2601 342.07 47.8201C343.19 46.8301 343.73 45.5801 343.69 44.1301C343.57 40.1401 339.53 38.5001 335.04 37.0501C334.43 36.8501 333.88 36.6701 333.41 36.5001C333.16 36.4101 332.88 36.3101 332.57 36.2101C329.26 35.0701 322.37 32.6901 322.88 26.4001C323.21 22.2701 326.99 17.8301 334.5 17.8301C340.46 17.8301 344.85 20.3501 346.87 24.9301L342.77 26.4201C341.43 23.3801 338.65 21.8401 334.5 21.8401C334.43 21.8401 327.66 21.8901 327.28 26.6901C327.04 29.7401 330.53 31.2101 334.13 32.4501C334.47 32.5701 334.78 32.6801 335.06 32.7801C335.48 32.9301 335.98 33.1001 336.52 33.2701C340.5 34.5501 347.89 36.9401 348.11 44.0201Z" fill="#12696A"/>
<path d="M386.86 22.3901V33.7001H404.04V37.7101H386.86V49.3701H405.32V53.3801H383.13H382.44V18.3801H383.13H405.32V22.3901H386.86Z" fill="#12696A"/>
<path d="M152.09 53C151.7 53 151.32 52.85 151.03 52.56C150.45 51.97 150.45 51.02 151.04 50.44C152.66 48.84 154.28 47.27 155.88 45.72C167.26 34.73 177.08 25.25 172.41 13.79C165.26 -3.01999 135.85 4.92001 135.55 5.01001C134.75 5.23001 133.92 4.76001 133.7 3.97001C133.48 3.17001 133.95 2.35001 134.74 2.12001C136.05 1.75001 166.99 -6.59999 175.17 12.64C180.62 26 169.61 36.63 157.96 47.88C156.37 49.41 154.76 50.97 153.15 52.57C152.85 52.85 152.47 53 152.09 53Z" fill="url(#paint0_linear_3190_59643)"/>
<path d="M132.13 53.38C131.79 53.38 131.44 53.26 131.16 53.03C130.53 52.49 130.45 51.55 130.98 50.92C136.02 44.97 141.22 39.73 145.8 35.1C151.13 29.72 157.76 23.04 157.12 21.22C155.42 18.28 145.19 19.58 138.42 21.45C137.62 21.67 136.79 21.2 136.57 20.4C136.35 19.6 136.82 18.78 137.61 18.55C140.74 17.68 156.5 13.68 159.79 19.86L159.84 19.96C161.43 23.58 156.35 28.71 147.93 37.2C143.38 41.79 138.23 46.98 133.27 52.84C132.98 53.2 132.56 53.38 132.13 53.38Z" fill="url(#paint1_linear_3190_59643)"/>
<path d="M173.6 69.7H126.48C125.65 69.7 124.98 69.03 124.98 68.2C124.98 67.37 125.65 66.7 126.48 66.7H173.6C174.43 66.7 175.1 67.37 175.1 68.2C175.1 69.03 174.42 69.7 173.6 69.7Z" fill="url(#paint2_linear_3190_59643)"/>
<path d="M147.73 44.46C145.09 47.08 142.35 49.79 139.72 52.54C139.43 52.85 139.03 53 138.64 53C138.27 53 137.89 52.86 137.6 52.58C137 52.01 136.98 51.06 137.55 50.46C140.21 47.69 142.95 44.96 145.61 42.33C155.73 32.29 165.29 22.8 161.87 18.2C156.92 10.56 138.24 16.04 130.82 19.02C130.86 18.82 130.89 18.6 130.89 18.39C130.89 17.5 130.5 16.72 129.89 16.17C134.3 14.44 157.52 5.97003 164.33 16.49C169.26 23.1 159.28 32.99 147.73 44.46ZM129.9 16.16C129.37 15.68 128.67 15.38 127.9 15.38C126.24 15.38 124.9 16.72 124.9 18.38C124.9 20.04 126.24 21.38 127.9 21.38C129.34 21.38 130.54 20.37 130.83 19.01C130.87 18.81 130.9 18.59 130.9 18.38C130.9 17.49 130.51 16.71 129.9 16.16Z" fill="url(#paint3_linear_3190_59643)"/>
<path d="M146.22 52.2501L145.85 52.6001C145.56 52.8701 145.19 53.0001 144.83 53.0001C144.43 53.0001 144.03 52.8401 143.73 52.5201C143.17 51.9101 143.2 50.9601 143.81 50.4001L144.18 50.0501C158.33 36.9101 171.7 24.4901 167.08 15.4801C161.12 4.87006 139.92 10.0901 134.95 11.4901C135.06 11.1701 135.13 10.8401 135.13 10.4901C135.13 9.74006 134.84 9.06006 134.38 8.53006C140.29 6.87006 162.68 1.54006 169.72 14.0601C175.4 25.1501 161.23 38.3101 146.22 52.2501ZM134.39 8.53006C133.84 7.90006 133.04 7.49006 132.14 7.49006C130.48 7.49006 129.14 8.83006 129.14 10.4901C129.14 12.1501 130.48 13.4901 132.14 13.4901C133.44 13.4901 134.54 12.6501 134.96 11.4901C135.07 11.1701 135.14 10.8401 135.14 10.4901C135.13 9.74006 134.85 9.06006 134.39 8.53006Z" fill="url(#paint4_linear_3190_59643)"/>
<path d="M177.51 62.52C177.51 63.07 177.67 63.58 177.93 64.02H130.27C129.44 64.02 128.77 63.35 128.77 62.52C128.77 61.69 129.44 61.02 130.27 61.02H177.93C177.67 61.46 177.51 61.97 177.51 62.52ZM180.51 59.52C179.4 59.52 178.45 60.13 177.93 61.02C177.67 61.46 177.51 61.97 177.51 62.52C177.51 63.07 177.67 63.58 177.93 64.02C178.45 64.91 179.41 65.52 180.51 65.52C182.17 65.52 183.51 64.18 183.51 62.52C183.51 60.86 182.17 59.52 180.51 59.52Z" fill="url(#paint5_linear_3190_59643)"/>
<path d="M170.6 56.99C170.6 57.54 170.76 58.05 171.02 58.49H125.54C124.71 58.49 124.04 57.82 124.04 56.99C124.04 56.16 124.71 55.49 125.54 55.49H171.02C170.75 55.94 170.6 56.44 170.6 56.99ZM173.6 53.99C172.49 53.99 171.54 54.6 171.02 55.49C170.76 55.93 170.6 56.44 170.6 56.99C170.6 57.54 170.76 58.05 171.02 58.49C171.54 59.38 172.5 59.99 173.6 59.99C175.26 59.99 176.6 58.65 176.6 56.99C176.6 55.34 175.25 53.99 173.6 53.99Z" fill="url(#paint6_linear_3190_59643)"/>
</g>
<defs>
<linearGradient id="paint0_linear_3190_59643" x1="155.117" y1="52.9977" x2="155.117" y2="7.69659e-06" gradientUnits="userSpaceOnUse">
<stop stop-color="#177269"/>
<stop offset="1" stop-color="#1BDCCF"/>
</linearGradient>
<linearGradient id="paint1_linear_3190_59643" x1="145.389" y1="53.3766" x2="145.389" y2="16.4773" gradientUnits="userSpaceOnUse">
<stop stop-color="#177269"/>
<stop offset="1" stop-color="#1BDCCF"/>
</linearGradient>
<linearGradient id="paint2_linear_3190_59643" x1="124.975" y1="68.2027" x2="175.096" y2="68.2027" gradientUnits="userSpaceOnUse">
<stop stop-color="#1BDCCF"/>
<stop offset="1" stop-color="#177269"/>
</linearGradient>
<linearGradient id="paint3_linear_3190_59643" x1="145.26" y1="52.9977" x2="145.26" y2="11.2984" gradientUnits="userSpaceOnUse">
<stop stop-color="#177269"/>
<stop offset="1" stop-color="#1BDCCF"/>
</linearGradient>
<linearGradient id="paint4_linear_3190_59643" x1="150.069" y1="52.9978" x2="150.069" y2="5.98046" gradientUnits="userSpaceOnUse">
<stop stop-color="#177269"/>
<stop offset="1" stop-color="#1BDCCF"/>
</linearGradient>
<linearGradient id="paint5_linear_3190_59643" x1="128.764" y1="62.5187" x2="186.688" y2="62.5187" gradientUnits="userSpaceOnUse">
<stop stop-color="#1BDCCF"/>
<stop offset="1" stop-color="#177269"/>
</linearGradient>
<linearGradient id="paint6_linear_3190_59643" x1="124.027" y1="56.9924" x2="181.165" y2="56.9924" gradientUnits="userSpaceOnUse">
<stop stop-color="#1BDCCF"/>
<stop offset="1" stop-color="#177269"/>
</linearGradient>
<clipPath id="clip0_3190_59643">
<rect width="405.32" height="69.7" fill="white"/>
</clipPath>
</defs>
</svg>
