<svg width="18" height="14" viewBox="0 0 18 14" fill="none" xmlns="http://www.w3.org/2000/svg">
<path d="M9.00097 0.0499573C13.045 0.0499573 16.4095 2.95996 17.1152 6.79996C16.4102 10.64 13.045 13.55 9.00097 13.55C4.95697 13.55 1.59247 10.64 0.886719 6.79996C1.59172 2.95996 4.95697 0.0499573 9.00097 0.0499573ZM9.00097 12.05C10.5306 12.0496 12.0148 11.5301 13.2106 10.5763C14.4065 9.62259 15.2431 8.29116 15.5837 6.79996C15.2419 5.30994 14.4047 3.97996 13.2089 3.02748C12.0132 2.07499 10.5297 1.55635 9.00097 1.55635C7.47224 1.55635 5.98874 2.07499 4.793 3.02748C3.59727 3.97996 2.76004 5.30994 2.41822 6.79996C2.75879 8.29116 3.59547 9.62259 4.79133 10.5763C5.98718 11.5301 7.47137 12.0496 9.00097 12.05ZM9.00097 10.175C8.10586 10.175 7.24742 9.81938 6.61448 9.18644C5.98155 8.55351 5.62597 7.69506 5.62597 6.79996C5.62597 5.90485 5.98155 5.04641 6.61448 4.41347C7.24742 3.78054 8.10586 3.42496 9.00097 3.42496C9.89607 3.42496 10.7545 3.78054 11.3875 4.41347C12.0204 5.04641 12.376 5.90485 12.376 6.79996C12.376 7.69506 12.0204 8.55351 11.3875 9.18644C10.7545 9.81938 9.89607 10.175 9.00097 10.175ZM9.00097 8.67496C9.49825 8.67496 9.97516 8.47741 10.3268 8.12578C10.6784 7.77415 10.876 7.29724 10.876 6.79996C10.876 6.30268 10.6784 5.82576 10.3268 5.47413C9.97516 5.1225 9.49825 4.92496 9.00097 4.92496C8.50369 4.92496 8.02677 5.1225 7.67514 5.47413C7.32351 5.82576 7.12597 6.30268 7.12597 6.79996C7.12597 7.29724 7.32351 7.77415 7.67514 8.12578C8.02677 8.47741 8.50369 8.67496 9.00097 8.67496Z" fill="#FAFAFA"/>
</svg>
