<svg width="18" height="21" viewBox="0 0 18 21" fill="none" xmlns="http://www.w3.org/2000/svg">
<path d="M12 2.09351H2V18.0935H16V6.09351H12V2.09351ZM0 1.08551C0 0.537506 0.447 0.0935059 0.999 0.0935059H13L18 5.09351V19.0865C18.0009 19.2178 17.976 19.348 17.9266 19.4697C17.8772 19.5914 17.8043 19.7022 17.7121 19.7957C17.6199 19.8892 17.5101 19.9636 17.3892 20.0147C17.2682 20.0658 17.1383 20.0926 17.007 20.0935H0.993C0.730378 20.0917 0.479017 19.9866 0.293218 19.801C0.107418 19.6154 0.00209465 19.3641 0 19.1015V1.08551ZM9 9.09351V6.09351L13 10.0935L9 14.0935V11.0935H5V9.09351H9Z" fill="#787E82"/>
</svg>
