<svg width="16" height="15" viewBox="0 0 16 15" fill="none" xmlns="http://www.w3.org/2000/svg">
<path d="M0.083313 1.16113C0.0847618 0.953216 0.167942 0.754222 0.314886 0.607131C0.461829 0.460039 0.660739 0.376658 0.868647 0.375H15.1313C15.5651 0.375 15.9166 0.727292 15.9166 1.16113V13.8389C15.9152 14.0468 15.832 14.2458 15.6851 14.3929C15.5381 14.54 15.3392 14.6233 15.1313 14.625H0.868647C0.66029 14.6248 0.46054 14.5419 0.313284 14.3945C0.166028 14.2471 0.0833129 14.0472 0.083313 13.8389V1.16113ZM1.66665 1.95833V13.0417H14.3333V1.95833H1.66665ZM3.24998 3.54167H7.99998V8.29167H3.24998V3.54167ZM4.83331 5.125V6.70833H6.41665V5.125H4.83331ZM3.24998 9.875H12.75V11.4583H3.24998V9.875ZM9.58331 3.54167H12.75V5.125H9.58331V3.54167ZM9.58331 6.70833H12.75V8.29167H9.58331V6.70833Z" fill="#B1B1B1"/>
</svg>
