<svg width="20" height="21" viewBox="0 0 20 21" fill="none" xmlns="http://www.w3.org/2000/svg">
<path d="M15 2.04459H19C19.2652 2.04459 19.5196 2.14994 19.7071 2.33748C19.8946 2.52502 20 2.77937 20 3.04459V19.0446C20 19.3098 19.8946 19.5642 19.7071 19.7517C19.5196 19.9392 19.2652 20.0446 19 20.0446H1C0.734784 20.0446 0.48043 19.9392 0.292893 19.7517C0.105357 19.5642 0 19.3098 0 19.0446V3.04459C0 2.77937 0.105357 2.52502 0.292893 2.33748C0.48043 2.14994 0.734784 2.04459 1 2.04459H5V0.0445862H7V2.04459H13V0.0445862H15V2.04459ZM2 8.04459V18.0446H18V8.04459H2ZM4 10.0446H6V12.0446H4V10.0446ZM4 14.0446H6V16.0446H4V14.0446ZM8 10.0446H16V12.0446H8V10.0446ZM8 14.0446H13V16.0446H8V14.0446Z" fill="#787E82"/>
</svg>
