<svg width="21" height="21" viewBox="0 0 21 21" fill="none" xmlns="http://www.w3.org/2000/svg">
<path d="M16.031 14.618L20.314 18.9L18.899 20.315L14.617 16.032C13.0237 17.3092 11.042 18.0039 9 18.001C4.032 18.001 0 13.969 0 9.00098C0 4.03298 4.032 0.000976562 9 0.000976562C13.968 0.000976562 18 4.03298 18 9.00098C18.0029 11.043 17.3082 13.0247 16.031 14.618ZM14.025 13.876C15.2941 12.5709 16.0029 10.8214 16 9.00098C16 5.13298 12.867 2.00098 9 2.00098C5.132 2.00098 2 5.13298 2 9.00098C2 12.868 5.132 16.001 9 16.001C10.8204 16.0038 12.5699 15.2951 13.875 14.026L14.025 13.876Z" fill="#B1B1B1"/>
</svg>
