<svg width="20" height="20" viewBox="0 0 20 20" fill="none" xmlns="http://www.w3.org/2000/svg">
<path d="M0 10.0446C0 9.17959 0.11 8.34159 0.316 7.54059C0.868465 7.56963 1.4182 7.44534 1.90444 7.18145C2.39068 6.91757 2.79448 6.52438 3.07121 6.04533C3.34793 5.56629 3.48681 5.02005 3.47247 4.46701C3.45814 3.91396 3.29117 3.37566 2.99 2.91159C4.19894 1.72215 5.69079 0.860081 7.325 0.406586C7.57599 0.900058 7.95864 1.31445 8.43058 1.6039C8.90253 1.89334 9.44537 2.04654 9.999 2.04654C10.5526 2.04654 11.0955 1.89334 11.5674 1.6039C12.0394 1.31445 12.422 0.900058 12.673 0.406586C14.3072 0.860081 15.7991 1.72215 17.008 2.91159C16.7065 3.37574 16.5393 3.91426 16.5248 4.46755C16.5104 5.02085 16.6493 5.56735 16.9262 6.0466C17.2031 6.52585 17.6071 6.91915 18.0937 7.183C18.5802 7.44685 19.1303 7.57095 19.683 7.54159C19.889 8.34159 19.999 9.17959 19.999 10.0446C19.999 10.9096 19.889 11.7476 19.683 12.5486C19.1305 12.5193 18.5806 12.6435 18.0942 12.9073C17.6078 13.1711 17.2039 13.5643 16.927 14.0434C16.6502 14.5224 16.5112 15.0688 16.5255 15.6219C16.5398 16.175 16.7068 16.7134 17.008 17.1776C15.7991 18.367 14.3072 19.2291 12.673 19.6826C12.422 19.1891 12.0394 18.7747 11.5674 18.4853C11.0955 18.1958 10.5526 18.0426 9.999 18.0426C9.44537 18.0426 8.90253 18.1958 8.43058 18.4853C7.95864 18.7747 7.57599 19.1891 7.325 19.6826C5.69079 19.2291 4.19894 18.367 2.99 17.1776C3.29151 16.7134 3.45873 16.1749 3.47317 15.6216C3.48761 15.0683 3.3487 14.5218 3.07181 14.0426C2.79492 13.5633 2.39085 13.17 1.90431 12.9062C1.41776 12.6423 0.867704 12.5182 0.315 12.5476C0.11 11.7486 0 10.9106 0 10.0446ZM4.804 13.0446C5.434 14.1356 5.614 15.3906 5.368 16.5686C5.776 16.8586 6.21 17.1096 6.665 17.3186C7.58167 16.4974 8.76931 16.0437 10 16.0446C11.26 16.0446 12.438 16.5156 13.335 17.3186C13.79 17.1096 14.224 16.8586 14.632 16.5686C14.3794 15.3646 14.5803 14.1097 15.196 13.0446C15.8106 11.979 16.797 11.1777 17.966 10.7946C18.0122 10.2957 18.0122 9.79352 17.966 9.29459C16.7966 8.91165 15.8099 8.1104 15.195 7.04459C14.5793 5.97952 14.3784 4.72462 14.631 3.52059C14.2231 3.23051 13.7889 2.9794 13.334 2.77059C12.4176 3.59152 11.2303 4.04519 10 4.04459C8.76931 4.04544 7.58167 3.59175 6.665 2.77059C6.21013 2.97941 5.77589 3.23051 5.368 3.52059C5.62056 4.72462 5.41972 5.97952 4.804 7.04459C4.18937 8.11021 3.20298 8.91143 2.034 9.29459C1.98775 9.79352 1.98775 10.2957 2.034 10.7946C3.20335 11.1775 4.19013 11.9788 4.805 13.0446H4.804ZM10 13.0446C9.20435 13.0446 8.44129 12.7285 7.87868 12.1659C7.31607 11.6033 7 10.8402 7 10.0446C7 9.24894 7.31607 8.48587 7.87868 7.92326C8.44129 7.36066 9.20435 7.04459 10 7.04459C10.7956 7.04459 11.5587 7.36066 12.1213 7.92326C12.6839 8.48587 13 9.24894 13 10.0446C13 10.8402 12.6839 11.6033 12.1213 12.1659C11.5587 12.7285 10.7956 13.0446 10 13.0446ZM10 11.0446C10.2652 11.0446 10.5196 10.9392 10.7071 10.7517C10.8946 10.5642 11 10.3098 11 10.0446C11 9.77937 10.8946 9.52501 10.7071 9.33748C10.5196 9.14994 10.2652 9.04459 10 9.04459C9.73478 9.04459 9.48043 9.14994 9.29289 9.33748C9.10536 9.52501 9 9.77937 9 10.0446C9 10.3098 9.10536 10.5642 9.29289 10.7517C9.48043 10.9392 9.73478 11.0446 10 11.0446Z" fill="#787E82"/>
</svg>
