<svg width="30" height="30" viewBox="0 0 30 30" fill="none" xmlns="http://www.w3.org/2000/svg">
<path d="M14.9999 29.1663C7.17567 29.1663 0.833252 22.8239 0.833252 14.9997C0.833252 7.17542 7.17567 0.833008 14.9999 0.833008C22.8242 0.833008 29.1666 7.17542 29.1666 14.9997C29.1666 22.8239 22.8242 29.1663 14.9999 29.1663ZM14.9999 26.333C18.0057 26.333 20.8884 25.139 23.0138 23.0136C25.1392 20.8881 26.3333 18.0055 26.3333 14.9997C26.3333 11.9939 25.1392 9.11121 23.0138 6.9858C20.8884 4.86039 18.0057 3.66634 14.9999 3.66634C11.9941 3.66634 9.11145 4.86039 6.98604 6.9858C4.86063 9.11121 3.66659 11.9939 3.66659 14.9997C3.66659 18.0055 4.86063 20.8881 6.98604 23.0136C9.11145 25.139 11.9941 26.333 14.9999 26.333V26.333ZM16.4166 14.9997H22.0833V17.833H13.5833V7.91634H16.4166V14.9997Z" fill="#008662"/>
</svg>
