<svg width="20" height="20" viewBox="0 0 20 20" fill="none" xmlns="http://www.w3.org/2000/svg">
<path d="M4.455 16.0446L0 19.5446V1.04459C0 0.77937 0.105357 0.525016 0.292893 0.337479C0.48043 0.149943 0.734784 0.0445862 1 0.0445862H19C19.2652 0.0445862 19.5196 0.149943 19.7071 0.337479C19.8946 0.525016 20 0.77937 20 1.04459V15.0446C20 15.3098 19.8946 15.5642 19.7071 15.7517C19.5196 15.9392 19.2652 16.0446 19 16.0446H4.455ZM2 15.4296L3.763 14.0446H18V2.04459H2V15.4296ZM11 8.04459V12.0446H9V8.04459H6L10 4.04459L14 8.04459H11Z" fill="#787E82"/>
</svg>
