<svg width="24" height="25" viewBox="0 0 24 25" fill="none" xmlns="http://www.w3.org/2000/svg">
<g clip-path="url(#clip0_4770_73453)">
<path d="M19.6667 14.2976H20V16.7466H17.7778V14.5425C17 14.5425 16.2222 14.2976 15.5556 14.0527V21.6446H6.66667V4.50171H11.2222C11.4444 3.64457 11.8889 2.78743 12.3333 2.05273H1.11111C0.555556 2.05273 0 2.54253 0 3.27722V22.8691C0 23.4813 0.444444 24.0936 1.11111 24.0936H21.1111C21.6667 24.0936 22.2222 23.6038 22.2222 22.8691V12.9507C21.4444 13.5629 20.5556 14.0527 19.6667 14.2976ZM4.44444 21.6446H2.22222V19.1956H4.44444V21.6446ZM4.44444 16.7466H2.22222V14.2976H4.44444V16.7466ZM4.44444 11.8487H2.22222V9.39967H4.44444V11.8487ZM4.44444 6.95069H2.22222V4.50171H4.44444V6.95069ZM20 21.6446H17.7778V19.1956H20V21.6446Z" fill="#525256"/>
<path d="M18 13.318C14.6667 13.318 12 10.3792 12 6.70575C12 3.03228 14.6667 0.0935059 18 0.0935059C21.3333 0.0935059 24 3.03228 24 6.70575C24 10.3792 21.3333 13.318 18 13.318ZM18 11.9711C20.6667 11.9711 22.7778 9.64453 22.7778 6.70575C22.7778 3.76698 20.6667 1.44044 18 1.44044C15.3333 1.44044 13.2222 3.76698 13.2222 6.70575C13.2222 9.64453 15.3333 11.9711 18 11.9711ZM18 5.72616L19.6667 3.88942L20.5556 4.86902L18.8889 6.70575L20.5556 8.54249L19.6667 9.52208L18 7.68534L16.3333 9.52208L15.4444 8.54249L17.1111 6.70575L15.4444 4.86902L16.3333 3.88942L18 5.72616Z" fill="#787E82"/>
</g>
<defs>
<clipPath id="clip0_4770_73453">
<rect width="24" height="24" fill="white" transform="translate(0 0.0935059)"/>
</clipPath>
</defs>
</svg>
