<svg width="20" height="20" viewBox="0 0 20 20" fill="none" xmlns="http://www.w3.org/2000/svg">
<path d="M14.5833 4.50001H19.1666V6.33334H17.3333V18.25C17.3333 18.4931 17.2367 18.7263 17.0648 18.8982C16.8929 19.0701 16.6597 19.1667 16.4166 19.1667H3.58325C3.34014 19.1667 3.10698 19.0701 2.93507 18.8982C2.76316 18.7263 2.66659 18.4931 2.66659 18.25V6.33334H0.833252V4.50001H5.41658V1.75001C5.41658 1.5069 5.51316 1.27374 5.68507 1.10183C5.85698 0.929921 6.09014 0.833344 6.33325 0.833344H13.6666C13.9097 0.833344 14.1429 0.929921 14.3148 1.10183C14.4867 1.27374 14.5833 1.5069 14.5833 1.75001V4.50001ZM15.4999 6.33334H4.49992V17.3333H15.4999V6.33334ZM7.24992 9.08334H9.08325V14.5833H7.24992V9.08334ZM10.9166 9.08334H12.7499V14.5833H10.9166V9.08334ZM7.24992 2.66668V4.50001H12.7499V2.66668H7.24992Z" fill="#008662"/>
</svg>
