<svg width="22" height="23" viewBox="0 0 22 23" fill="none" xmlns="http://www.w3.org/2000/svg">
<path d="M16.416 5.00008H21.8327V7.16675H19.666V21.2501C19.666 21.5374 19.5519 21.813 19.3487 22.0161C19.1456 22.2193 18.87 22.3334 18.5827 22.3334H3.41602C3.1287 22.3334 2.85315 22.2193 2.64998 22.0161C2.44682 21.813 2.33268 21.5374 2.33268 21.2501V7.16675H0.166016V5.00008H5.58268V1.75008C5.58268 1.46276 5.69682 1.18721 5.89998 0.984049C6.10315 0.780885 6.3787 0.666748 6.66602 0.666748H15.3327C15.62 0.666748 15.8956 0.780885 16.0987 0.984049C16.3019 1.18721 16.416 1.46276 16.416 1.75008V5.00008ZM17.4993 7.16675H4.49935V20.1667H17.4993V7.16675ZM7.74935 10.4167H9.91602V16.9167H7.74935V10.4167ZM12.0827 10.4167H14.2493V16.9167H12.0827V10.4167ZM7.74935 2.83341V5.00008H14.2493V2.83341H7.74935Z" fill="#008662"/>
</svg>
